<svg width="174" height="36" viewBox="0 0 174 36" fill="none" xmlns="http://www.w3.org/2000/svg">
<path d="M18.9178 6.81508C17.4668 6.77537 16.0226 7.02706 14.6705 7.55528C13.3185 8.08349 12.0861 8.87749 11.0463 9.89032C10.0065 10.9031 9.18034 12.1142 8.61676 13.4519C8.05317 14.7896 7.76359 16.2267 7.76514 17.6783C7.76514 24.2455 13.1343 28.5415 18.9586 28.5415C22.8412 28.5415 26.5174 26.8069 29.6563 24.0391V32.1761C26.226 34.1703 22.3471 35.2643 18.3804 35.3566C8.38491 35.3566 0 27.2196 0 17.6783C0 7.55882 8.42651 0 18.422 0C22.3271 0.0642315 26.1728 0.965813 29.6995 2.64384V10.6153C26.0216 8.1786 22.3046 6.81508 18.9178 6.81508Z" fill="#E31937"/>
<path d="M50.9284 35.3566C40.8913 35.3566 32.3824 27.5498 32.3824 17.6783C32.3824 7.72354 40.809 0 51.3827 0C55.3427 0.0462079 59.2561 0.859868 62.9064 2.39593V10.3266C59.5604 8.38492 55.2652 6.85668 51.5474 6.85668C50.0836 6.81375 48.6259 7.06148 47.2585 7.58554C45.8911 8.10961 44.6411 8.89961 43.581 9.90984C42.5209 10.9201 41.6716 12.1305 41.0822 13.4711C40.4929 14.8116 40.1752 16.2558 40.1476 17.7199C40.1476 24.1257 45.4344 28.7894 51.6713 28.7894C53.095 28.8366 54.5136 28.5979 55.8434 28.0873V21.6815H50.1864V14.9521H63.1144V32.8384C59.2751 34.5266 55.1224 35.3847 50.9284 35.3566Z" fill="#E31937"/>
<path d="M68.7307 34.6544V0.702148H76V34.6544H68.7307Z" fill="#E31937"/>
<path d="M89 7L89 29" stroke="#B7B7B7"/>
<path d="M100.143 24V12.192H101.637V22.722H106.803V24H100.143ZM113.066 24.216C112.034 24.216 111.116 23.976 110.312 23.496C109.508 23.004 108.878 22.302 108.422 21.39C107.966 20.478 107.738 19.38 107.738 18.096C107.738 16.824 107.972 15.732 108.44 14.82C108.908 13.908 109.55 13.206 110.366 12.714C111.182 12.222 112.112 11.976 113.156 11.976C113.972 11.976 114.656 12.132 115.208 12.444C115.772 12.744 116.222 13.074 116.558 13.434L115.73 14.406C115.43 14.094 115.082 13.83 114.686 13.614C114.29 13.398 113.792 13.29 113.192 13.29C112.4 13.29 111.71 13.488 111.122 13.884C110.534 14.268 110.078 14.814 109.754 15.522C109.442 16.23 109.286 17.076 109.286 18.06C109.286 19.548 109.622 20.73 110.294 21.606C110.978 22.47 111.95 22.902 113.21 22.902C113.63 22.902 114.032 22.842 114.416 22.722C114.8 22.59 115.106 22.416 115.334 22.2V19.122H112.832V17.88H116.702V22.848C116.33 23.244 115.826 23.574 115.19 23.838C114.566 24.09 113.858 24.216 113.066 24.216ZM119.532 24V12.192H123.042C123.846 12.192 124.548 12.288 125.148 12.48C125.76 12.672 126.234 12.978 126.57 13.398C126.918 13.818 127.092 14.376 127.092 15.072C127.092 15.66 126.942 16.194 126.642 16.674C126.354 17.142 125.928 17.466 125.364 17.646V17.718C126.072 17.85 126.648 18.15 127.092 18.618C127.548 19.086 127.776 19.728 127.776 20.544C127.776 21.312 127.584 21.954 127.2 22.47C126.828 22.986 126.306 23.37 125.634 23.622C124.962 23.874 124.182 24 123.294 24H119.532ZM121.026 17.214H122.772C123.78 17.214 124.506 17.04 124.95 16.692C125.394 16.344 125.616 15.87 125.616 15.27C125.616 14.586 125.382 14.1 124.914 13.812C124.458 13.524 123.768 13.38 122.844 13.38H121.026V17.214ZM121.026 22.812H123.078C124.098 22.812 124.89 22.626 125.454 22.254C126.018 21.87 126.3 21.282 126.3 20.49C126.3 19.758 126.018 19.224 125.454 18.888C124.902 18.54 124.11 18.366 123.078 18.366H121.026V22.812ZM132.122 24V13.452H128.558V12.192H137.198V13.452H133.634V24H132.122ZM142.928 24V12.192H144.422V17.142H149.912V12.192H151.424V24H149.912V18.438H144.422V24H142.928ZM157.082 24.216C156.158 24.216 155.48 23.928 155.048 23.352C154.616 22.764 154.4 21.912 154.4 20.796V15.252H155.894V20.598C155.894 21.414 156.02 22.008 156.272 22.38C156.536 22.752 156.956 22.938 157.532 22.938C157.988 22.938 158.39 22.824 158.738 22.596C159.098 22.356 159.482 21.978 159.89 21.462V15.252H161.366V24H160.142L160.016 22.632H159.962C159.554 23.112 159.122 23.496 158.666 23.784C158.21 24.072 157.682 24.216 157.082 24.216ZM168.187 24.216C167.779 24.216 167.353 24.12 166.909 23.928C166.477 23.724 166.069 23.448 165.685 23.1H165.631L165.505 24H164.317V11.184H165.793V14.676L165.757 16.26C166.153 15.912 166.585 15.624 167.053 15.396C167.533 15.156 168.013 15.036 168.493 15.036C169.633 15.036 170.497 15.438 171.085 16.242C171.673 17.046 171.967 18.126 171.967 19.482C171.967 20.478 171.787 21.33 171.427 22.038C171.079 22.746 170.617 23.286 170.041 23.658C169.477 24.03 168.859 24.216 168.187 24.216ZM167.935 22.974C168.655 22.974 169.249 22.668 169.717 22.056C170.197 21.432 170.437 20.58 170.437 19.5C170.437 18.54 170.257 17.766 169.897 17.178C169.549 16.578 168.961 16.278 168.133 16.278C167.761 16.278 167.383 16.38 166.999 16.584C166.615 16.788 166.213 17.082 165.793 17.466V22.056C166.177 22.392 166.555 22.632 166.927 22.776C167.311 22.908 167.647 22.974 167.935 22.974Z" fill="black"/>
</svg>
